<?xml version="1.0" encoding="UTF-8" standalone="no"?>
<!DOCTYPE svg PUBLIC "-//W3C//DTD SVG 1.1//EN" "http://www.w3.org/Graphics/SVG/1.1/DTD/svg11.dtd">
<svg width="100%" height="100%" viewBox="0 0 2640 3148" version="1.1" xmlns="http://www.w3.org/2000/svg" xmlns:xlink="http://www.w3.org/1999/xlink" xml:space="preserve" xmlns:serif="http://www.serif.com/" style="fill-rule:evenodd;clip-rule:evenodd;stroke-linejoin:round;stroke-miterlimit:2;">
    <g transform="matrix(22.5591,0,0,21.9742,1949.05,-20.5872)">
        <g transform="matrix(0.0503002,0,0,0.0516391,-39.4183,-1.09254)">
            <path d="M1101.75,268.848L941.406,108.503C923.795,90.893 895.58,90.522 878.426,107.676C861.272,124.83 861.643,153.045 879.253,170.656L1039.6,331L879.253,491.344C861.643,508.955 861.272,537.17 878.426,554.324C895.58,571.478 923.795,571.107 941.406,553.497L1101.75,393.152L1262.09,553.497C1279.7,571.107 1307.92,571.478 1325.07,554.324C1342.23,537.17 1341.86,508.955 1324.25,491.344L1163.9,331L1324.25,170.656C1341.86,153.045 1342.23,124.83 1325.07,107.676C1307.92,90.522 1279.7,90.893 1262.09,108.503L1101.75,268.848Z" style="fill:white;fill-rule:nonzero;stroke:white;stroke-width:1px;"/>
        </g>
        <g transform="matrix(0.044328,0,0,0.0574799,-86.3977,-8.01109)">
            <rect x="0" y="747.876" width="2640" height="1900.12" style="fill:rgb(0,201,255);"/>
        </g>
        <g transform="matrix(0.044328,0,0,0.0455079,-64.4211,-1.18701)">
            <text x="283.877px" y="1139.28px" style="font-family:'Mukta-Medium', 'Mukta', sans-serif;font-weight:500;font-size:300px;fill:white;">Ov<tspan x="631.577px " y="1139.28px ">e</tspan>r mij</text>
        </g>
        <g transform="matrix(0.044328,0,0,0.0455079,-64.4211,25.7714)">
            <text x="207.527px" y="1139.28px" style="font-family:'Mukta-Medium', 'Mukta', sans-serif;font-weight:500;font-size:300px;fill:white;">Opleidin<tspan x="1280.93px " y="1139.28px ">g</tspan></text>
        </g>
        <g transform="matrix(0.044328,0,0,0.0455079,-64.4211,52.4269)">
            <text x="496.877px" y="1139.28px" style="font-family:'Mukta-Medium', 'Mukta', sans-serif;font-weight:500;font-size:300px;fill:white;">W<tspan x="744.377px " y="1139.28px ">e</tspan>rk</text>
        </g>
        <g transform="matrix(0.044328,0,0,0.0455079,-64.4211,80.203)">
            <text x="306.377px" y="1139.28px" style="font-family:'Mukta-Medium', 'Mukta', sans-serif;font-weight:500;font-size:300px;fill:white;">Hobbies</text>
        </g>
        <g transform="matrix(0.0445673,0,0,0.0531804,-86.3977,44.2047)">
            <rect x="0" y="1324" width="2625.83" height="42.786" style="fill:white;"/>
        </g>
        <g transform="matrix(0.0445673,0,0,0.0531804,-86.3977,-10.4048)">
            <rect x="0" y="1324" width="2625.83" height="42.786" style="fill:white;"/>
        </g>
        <g transform="matrix(0.0445673,0,0,0.0531804,-86.3977,71.5095)">
            <rect x="0" y="1324" width="2625.83" height="42.786" style="fill:white;"/>
        </g>
        <g transform="matrix(0.0445673,0,0,0.0531804,-86.3977,16.9)">
            <rect x="0" y="1324" width="2625.83" height="42.786" style="fill:white;"/>
        </g>
    </g>
</svg>
