<?xml version="1.0" encoding="UTF-8" standalone="no"?>
<!DOCTYPE svg PUBLIC "-//W3C//DTD SVG 1.1//EN" "http://www.w3.org/Graphics/SVG/1.1/DTD/svg11.dtd">
<svg width="100%" height="100%" viewBox="0 0 660 662" version="1.1" xmlns="http://www.w3.org/2000/svg" xmlns:xlink="http://www.w3.org/1999/xlink" xml:space="preserve" xmlns:serif="http://www.serif.com/" style="fill-rule:evenodd;clip-rule:evenodd;stroke-linejoin:round;stroke-miterlimit:2;">
    <g transform="matrix(22.5591,0,0,21.9742,-30.9457,-20.5872)">
        <path d="M4,8.065L28,8.065C29.104,8.065 30,7.169 30,6.065C30,4.961 29.104,4.065 28,4.065L4,4.065C2.896,4.065 2,4.961 2,6.065C2,7.169 2.896,8.065 4,8.065ZM28,14L4,14C2.896,14 2,14.896 2,16C2,17.104 2.896,18 4,18L28,18C29.104,18 30,17.104 30,16C30,14.896 29.104,14 28,14ZM28,23.935L4,23.935C2.896,23.935 2,24.831 2,25.935C2,27.039 2.896,27.935 4,27.935L28,27.935C29.104,27.935 30,27.039 30,25.935C30,24.831 29.104,23.935 28,23.935Z" style="fill:white;fill-rule:nonzero;stroke:white;stroke-width:1px;"/>
    </g>
</svg>
