<?xml version="1.0" encoding="UTF-8" standalone="no"?>
<!DOCTYPE svg PUBLIC "-//W3C//DTD SVG 1.1//EN" "http://www.w3.org/Graphics/SVG/1.1/DTD/svg11.dtd">
<svg width="100%" height="100%" viewBox="0 0 660 662" version="1.1" xmlns="http://www.w3.org/2000/svg" xmlns:xlink="http://www.w3.org/1999/xlink" xml:space="preserve" xmlns:serif="http://www.serif.com/" style="fill-rule:evenodd;clip-rule:evenodd;stroke-linejoin:round;stroke-miterlimit:2;">
    <g>
        <path d="M1.81,47.422C1.81,21.245 23.58,0 50.43,0L611.02,0C637.88,0 659.64,21.245 659.64,47.422L659.64,614.587C659.64,640.772 637.88,662 611.02,662L50.43,662C23.58,662 1.81,640.772 1.81,614.595L1.81,47.422ZM512.995,255.242L147.006,255.242C122.039,255.242 101.729,275.552 101.729,300.52L101.729,508.835C101.729,533.802 122.039,554.112 147.006,554.112L512.995,554.112C537.962,554.112 558.271,533.802 558.271,508.835L558.271,300.52C558.272,275.552 537.963,255.242 512.995,255.242ZM261.614,430.028L304.001,472.416C310.951,479.365 320.185,483.189 330.001,483.189C339.816,483.189 349.051,479.365 356,472.416L398.389,430.028L492.279,523.927L167.715,523.927L261.614,430.028ZM528.088,300.52L528.088,508.835C528.088,511.216 527.417,513.39 526.429,515.394L419.729,408.685L528.057,300.357C528.057,300.417 528.088,300.46 528.088,300.52ZM131.914,508.834L131.914,300.52C131.914,300.46 131.945,300.418 131.945,300.358L240.273,408.686L133.565,515.393C132.585,513.389 131.914,511.216 131.914,508.834ZM334.659,451.075C332.168,453.564 327.833,453.564 325.343,451.075L159.704,285.427L500.306,285.427L334.659,451.075Z" style="fill:rgb(254,245,167);fill-rule:nonzero;"/>
    </g>
</svg>
