<?xml version="1.0" encoding="UTF-8" standalone="no"?>
<!DOCTYPE svg PUBLIC "-//W3C//DTD SVG 1.1//EN" "http://www.w3.org/Graphics/SVG/1.1/DTD/svg11.dtd">
<svg width="100%" height="100%" viewBox="0 0 943 289" version="1.1" xmlns="http://www.w3.org/2000/svg" xmlns:xlink="http://www.w3.org/1999/xlink" xml:space="preserve" xmlns:serif="http://www.serif.com/" style="fill-rule:evenodd;clip-rule:evenodd;stroke-linejoin:round;stroke-miterlimit:2;">
    <g transform="matrix(1,0,0,1,42.716,-4.0991)">
        <path d="M0,187.801C-19.5,187.801 -34.5,177.5 -40.2,162.101C-46,146.7 -41.5,129.101 -29.1,118.401C-26.8,116.401 -24.3,114.5 -21.7,112.801C-10.5,105.2 -8.8,95.801 -16.7,84.901C-19.6,81 -23.3,78.101 -27.1,75.101C-45.7,60.901 -48,34.301 -32.3,16.901C-17.1,0 11.3,0.101 26.5,17C42.1,34.401 39.7,60.901 21.3,75.2C17.8,78 14.2,80.901 11.4,84.301C2.7,95.101 4.5,105 15.9,112.7C42.6,130.7 44,165 18.5,181.401C12,185.7 4.8,187.801 0,187.801" style="fill:rgb(254,189,85);fill-rule:nonzero;"/>
    </g>
    <g transform="matrix(1,0,0,1,184.516,141.001)">
        <path d="M0,-98.2C-0.5,-88.2 -5.6,-77.7 -15.8,-69.8C-19.6,-66.9 -23.4,-64 -26.2,-60C-34,-48.9 -32.2,-39.7 -20.9,-32.3C-6,-22.5 2.3,-9.1 -0.5,8.9C-3.1,25.5 -13.1,36.8 -29.8,41.3C-47.1,46 -65.1,38.5 -74.1,23.2C-83.3,7.6 -80.8,-12 -67.9,-24.8C-64.9,-27.7 -61.5,-30.3 -58.1,-32.7C-47.8,-39.6 -45.9,-48 -52.5,-58.6C-55.5,-63.5 -60,-66.8 -64.5,-70.3C-79.3,-81.9 -83.8,-102.2 -75.6,-118.8C-67.3,-135.3 -48.7,-144.2 -31,-139.9C-12.3,-135.4 0.2,-119.7 0,-98.2" style="fill:white;fill-rule:nonzero;"/>
    </g>
    <g transform="matrix(-0.999885,-0.0151498,-0.0151498,0.999885,248.516,79.1863)">
        <path d="M-0.7,-79.204C-22.602,-79.236 -40.373,-61.503 -40.505,-39.603C-40.533,-17.902 -22.7,-0.13 -0.7,0.005C21.202,0.036 39.073,-17.696 39.105,-39.597C39.133,-61.299 21.301,-79.071 -0.7,-79.204" style="fill:rgb(254,189,85);fill-rule:nonzero;"/>
    </g>
    <g transform="matrix(-0.999885,-0.01515,-0.01515,0.999885,248.517,288.286)">
        <path d="M-0.701,-79.103C-22.603,-79.135 -40.373,-61.402 -40.505,-39.503C-40.534,-17.801 -22.701,-0.029 -0.701,0.105C21.201,0.137 39.072,-17.595 39.104,-39.496C39.134,-61.299 21.301,-79.071 -0.701,-79.103" style="fill:white;fill-rule:nonzero;"/>
    </g>
    <g transform="matrix(1,0,0,1,605.716,133.002)">
        <path d="M0,20L-10.801,-7.601L-21.801,20L0,20ZM14.199,35.8C14.3,36.3 14.399,36.7 14.399,37.2C14.399,38.1 14.1,38.899 13.5,39.6C12.899,40.3 12,40.7 10.899,40.7C10.3,40.7 9.6,40.5 8.899,40C8.199,39.5 7.699,38.899 7.5,38.3L7.5,38.399L3,27.2L-24.801,27.2C-25.4,28.899 -26.2,30.8 -27,32.8C-27.801,34.8 -28.601,36.7 -29.301,38.399C-29.601,39 -30.101,39.5 -30.7,40C-31.4,40.5 -32,40.7 -32.601,40.7C-33.7,40.7 -34.5,40.3 -35.101,39.6C-35.7,38.8 -36.101,38 -36.101,37.2C-36.101,36.7 -36,36.3 -35.9,35.8L-18.801,-7.2L-14.2,-18.4L-14.2,-18.3C-13.9,-18.9 -13.5,-19.5 -12.801,-20C-12.2,-20.5 -11.5,-20.7 -10.7,-20.7C-10.101,-20.7 -9.4,-20.5 -8.801,-20C-8.2,-19.5 -7.7,-18.9 -7.4,-18.3L-7.4,-18.4L14.199,35.8Z" style="fill:white;fill-rule:nonzero;"/>
    </g>
    <g transform="matrix(1,0,0,1,663.416,122.302)">
        <path d="M0,41.4C0.7,41.099 1.301,41 1.801,41C2.4,41 3.101,41.2 3.601,41.5C4.2,41.799 4.601,42.299 4.9,42.9C5.4,43.7 5.4,44.599 5.101,45.599C4.801,46.599 4.2,47.299 3.5,47.799L3.601,47.7C1.4,48.799 -1,49.7 -3.6,50.4C-6.1,51.099 -8.699,51.4 -11.199,51.4C-15.399,51.4 -19.399,50.599 -23.1,49C-26.8,47.4 -30.1,45.2 -32.899,42.4C-35.699,39.599 -37.899,36.4 -39.5,32.599C-41.1,28.9 -41.899,24.9 -41.899,20.7C-41.899,16.5 -41.1,12.5 -39.5,8.799C-37.899,5.099 -35.699,1.799 -32.899,-1C-30.1,-3.8 -26.899,-6 -23.1,-7.6C-19.399,-9.201 -15.399,-10 -11.199,-10C-8.699,-10 -6.1,-9.6 -3.6,-8.901C-1.1,-8.201 1.301,-7.3 3.601,-6.3L3.5,-6.401C4.301,-5.901 4.9,-5.1 5.2,-4.201C5.5,-3.201 5.4,-2.3 4.9,-1.401C4.301,-0.201 3.2,0.4 1.7,0.4C1.101,0.4 0.5,0.299 -0.1,0L0,0C-1.6,-0.901 -3.399,-1.6 -5.3,-2.1C-7.3,-2.6 -9.199,-2.8 -11.199,-2.8C-14.399,-2.8 -17.399,-2.201 -20.3,-1C-23.1,0.2 -25.6,1.9 -27.8,4C-29.899,6.099 -31.6,8.599 -32.899,11.5C-34.199,14.4 -34.8,17.4 -34.8,20.7C-34.8,24 -34.199,27.099 -32.899,29.9C-31.6,32.799 -29.899,35.299 -27.8,37.4C-25.699,39.5 -23.199,41.2 -20.3,42.4C-17.5,43.599 -14.399,44.2 -11.199,44.2C-9.199,44.2 -7.199,44 -5.3,43.5C-3.3,43.2 -1.5,42.4 0,41.4" style="fill:white;fill-rule:nonzero;"/>
    </g>
    <g transform="matrix(1,0,0,1,712.816,133.002)">
        <path d="M0,20L-10.8,-7.601L-21.8,20L0,20ZM14.2,35.8C14.3,36.3 14.4,36.7 14.4,37.2C14.4,38.1 14.1,38.899 13.5,39.6C12.9,40.3 12,40.7 10.9,40.7C10.3,40.7 9.6,40.5 8.9,40C8.2,39.5 7.7,38.899 7.5,38.3L7.5,38.399L3,27.2L-24.8,27.2C-25.4,28.899 -26.2,30.8 -27,32.8C-27.8,34.8 -28.6,36.7 -29.3,38.399C-29.6,39 -30.1,39.5 -30.7,40C-31.4,40.5 -32,40.7 -32.6,40.7C-33.7,40.7 -34.5,40.3 -35.1,39.6C-35.7,38.8 -36.1,38 -36.1,37.2C-36.1,36.7 -36,36.3 -35.9,35.8L-18.8,-7.2L-14.2,-18.4L-14.2,-18.3C-13.9,-18.9 -13.5,-19.5 -12.8,-20C-12.2,-20.5 -11.5,-20.7 -10.7,-20.7C-10.101,-20.7 -9.4,-20.5 -8.8,-20C-8.2,-19.5 -7.7,-18.9 -7.4,-18.3L-7.4,-18.4L14.2,35.8Z" style="fill:white;fill-rule:nonzero;"/>
    </g>
    <g transform="matrix(1,0,0,1,742.216,119.402)">
        <path d="M0,47.199L12,47.199C12.1,47.199 12.5,47.199 13.1,47.099C13.699,46.999 14.399,46.899 15.3,46.699C16.199,46.499 17.199,46.199 18.3,45.699C19.399,45.3 20.6,44.699 21.699,43.999C24.6,42.099 26.8,39.399 28.399,35.899C30,32.399 30.8,28.3 30.8,23.599C30.8,18.699 30,14.499 28.3,10.999C26.699,7.499 24.3,4.899 21.3,2.899C20.199,2.199 19.199,1.699 18.1,1.3C17,0.899 16,0.599 15.1,0.499C14.199,0.399 13.199,0.199 12.1,0.099L0.1,0.099L0.1,47.199L0,47.199ZM-3.801,54.399C-4.7,54.399 -5.601,53.999 -6.301,53.3C-7,52.599 -7.4,51.8 -7.4,50.8L-7.4,-3.601C-7.4,-4.501 -7,-5.401 -6.301,-6.101C-5.601,-6.801 -4.801,-7.2 -3.801,-7.2L12,-7.2C12.1,-7.2 12.699,-7.2 14.1,-7.101C15.399,-7.001 17,-6.7 19,-6.101C20.899,-5.501 23,-4.7 25.199,-3.401C27.399,-2.2 29.5,-0.401 31.3,1.899C33.199,4.199 34.699,7.099 36,10.599C37.3,14.099 37.899,18.399 37.899,23.599C37.899,28.8 37.3,33.099 36,36.599C34.699,40.099 33.199,42.999 31.3,45.3C29.399,47.599 27.399,49.3 25.199,50.599C23,51.8 20.899,52.699 19,53.3C17.1,53.899 15.399,54.199 14.1,54.3C12.8,54.399 12.1,54.399 12,54.399L-3.801,54.399Z" style="fill:white;fill-rule:nonzero;"/>
    </g>
    <g transform="matrix(1,0,0,1,824.316,118.402)">
        <path d="M0,49.199C0.7,49.899 1.1,50.8 1.1,51.8C1.1,52.699 0.7,53.599 0,54.3C-0.7,54.999 -1.6,55.399 -2.5,55.399L-32.4,55.399C-33.4,55.399 -34.2,54.999 -34.9,54.3C-35.6,53.599 -36,52.8 -36,51.8L-36,-2.601C-36,-3.501 -35.6,-4.401 -34.9,-5.101C-34.2,-5.801 -33.3,-6.2 -32.4,-6.2L-2.5,-6.2C-1.5,-6.2 -0.7,-5.801 0,-5.101C0.7,-4.401 1.1,-3.601 1.1,-2.601C1.1,-1.501 0.7,-0.7 0,-0.001C-0.7,0.699 -1.6,1.099 -2.5,1.099L-28.8,1.099L-28.8,21.099L-8,21.099C-7,21.099 -6.2,21.399 -5.5,22.099C-4.8,22.8 -4.5,23.599 -4.5,24.599C-4.5,25.599 -4.8,26.399 -5.5,27.099C-6.2,27.8 -7,28.099 -8,28.099L-28.8,28.099L-28.8,48.099L-2.5,48.099C-1.6,48.199 -0.8,48.499 0,49.199" style="fill:white;fill-rule:nonzero;"/>
    </g>
    <g transform="matrix(1,0,0,1,885.816,112.201)">
        <path d="M0,61.6C-0.9,61.6 -1.8,61.2 -2.5,60.5C-3.2,59.8 -3.6,59 -3.6,58L-3.6,14.4L-21.6,38.3C-22.2,39.3 -23.2,39.8 -24.5,39.8C-25,39.8 -25.6,39.7 -26.1,39.4C-26.6,39.1 -27.1,38.8 -27.4,38.3L-45.2,14.4L-45.2,58C-45.2,58.9 -45.6,59.8 -46.3,60.5C-47,61.2 -47.9,61.6 -48.9,61.6C-49.9,61.6 -50.7,61.2 -51.4,60.5C-52.1,59.8 -52.5,59 -52.5,58L-52.5,3.6C-52.5,2.7 -52.1,1.8 -51.4,1.1C-50.7,0.4 -49.8,0 -48.8,0C-48.3,0 -47.8,0.1 -47.3,0.4C-46.8,0.7 -46.4,1 -46,1.4L-24.5,30.2L-2.9,1.4C-2.1,0.5 -1.2,0 -0.1,0C1,0 1.8,0.4 2.5,1.1C3.2,1.8 3.5,2.6 3.5,3.6L3.5,58.1C3.5,59 3.1,59.9 2.4,60.6C1.9,61.2 1,61.6 0,61.6" style="fill:white;fill-rule:nonzero;"/>
    </g>
    <g transform="matrix(1,0,0,1,940.516,173.301)">
        <path d="M0,-60.4C1.1,-59.599 1.7,-58.7 1.7,-57.5C1.7,-56.599 1.5,-55.9 1.1,-55.4L-17.3,-29.2L-17.3,-3C-17.3,-2.099 -17.7,-1.2 -18.4,-0.5C-19.101,0.201 -20,0.6 -21.101,0.6C-22,0.6 -22.9,0.201 -23.601,-0.5C-24.3,-1.2 -24.7,-2 -24.7,-3L-24.7,-29.2L-43.101,-55.4C-43.5,-55.9 -43.7,-56.5 -43.7,-57.2C-43.7,-58.099 -43.4,-59 -42.7,-59.799C-42.101,-60.599 -41.2,-61 -40.2,-61C-39.601,-61 -39,-60.799 -38.4,-60.5C-37.9,-60.2 -37.4,-59.799 -37.101,-59.299L-21.2,-36.599C-18.7,-40.099 -16,-43.9 -13.101,-47.9C-10.2,-51.9 -7.5,-55.7 -5,-59.299C-4.601,-59.799 -4.2,-60.2 -3.7,-60.5C-3.2,-60.799 -2.601,-61 -2,-61C-1.101,-61 -0.4,-60.799 0,-60.4" style="fill:white;fill-rule:nonzero;"/>
    </g>
    <g transform="matrix(1,0,0,1,237.216,120.202)">
        <path d="M0,43.5C-5.8,37.699 -9,30 -9,21.699C-9,13.5 -5.8,5.8 0,0C5.8,-5.9 13.5,-9 21.8,-9C30,-9 37.7,-5.801 43.6,0C44.6,1 45,2.199 45,3.5C45,4.8 44.6,6.1 43.5,7.199C42.4,8.3 41.2,8.699 39.9,8.699C38.6,8.699 37.3,8.3 36.3,7.199C32.4,3.3 27.3,1.199 21.8,1.199C16.3,1.199 11.2,3.3 7.3,7.199C3.4,11.1 1.2,16.199 1.2,21.699C1.2,27.1 3.4,32.3 7.3,36.199C11.3,40.199 16.5,42.3 21.8,42.3C26.5,42.3 31,40.699 34.8,37.6L34.8,26.8L22,26.8C19.2,26.8 16.8,24.5 16.8,21.699C16.8,18.899 19.2,16.6 22,16.6L39.9,16.6C42.7,16.6 45,18.899 45,21.699L45,39.8C45,41.199 44.5,42.5 43.5,43.5C37.5,49.5 29.6,52.5 21.8,52.5C13.9,52.5 6,49.5 0,43.5" style="fill:white;fill-rule:nonzero;"/>
    </g>
    <g transform="matrix(1,0,0,1,322.616,134.302)">
        <path d="M0,15.4L-7.7,-4.201L-15.5,15.4L0,15.4ZM17.5,31.4C17.8,32 17.9,32.7 17.9,33.299C17.9,35.9 15.9,38.4 12.8,38.4C10.8,38.4 8.8,37.2 8.1,35.099L4.2,25.5L-19.6,25.5L-23.5,35.099C-24.3,37.099 -26.2,38.4 -28.2,38.4C-31.2,38.4 -33.3,35.9 -33.3,33.299C-33.3,32.599 -33.2,32 -32.9,31.4L-12.4,-19.8C-11.6,-21.701 -9.7,-23 -7.6,-23C-5.6,-23 -3.6,-21.701 -2.9,-19.8L17.5,31.4Z" style="fill:white;fill-rule:nonzero;"/>
    </g>
    <g transform="matrix(1,0,0,1,352.616,111.202)">
        <path d="M0,61.5C-2.9,61.5 -5.2,59.199 -5.2,56.399L-5.2,5.1C-5.2,2.3 -2.9,0 0,0C2.8,0 5.1,2.3 5.1,5.1L5.1,51.199L23,51.199C25.8,51.199 28.2,53.5 28.2,56.399C28.2,59.199 25.8,61.5 23,61.5L0,61.5Z" style="fill:white;fill-rule:nonzero;"/>
    </g>
    <g transform="matrix(1,0,0,1,387.816,116.303)">
        <path d="M0,51.298L0,-0.002C0,-2.802 2.3,-5.101 5.1,-5.101C7.9,-5.101 10.2,-2.802 10.2,-0.002L10.2,51.298C10.2,54.098 7.9,56.399 5.1,56.399C2.3,56.399 0,54.098 0,51.298" style="fill:white;fill-rule:nonzero;"/>
    </g>
    <g transform="matrix(1,0,0,1,410.216,111.202)">
        <path d="M0,61.5C-2.9,61.5 -5.2,59.199 -5.2,56.399L-5.2,5.1C-5.2,2.3 -2.9,0 0,0C2.8,0 5.1,2.3 5.1,5.1L5.1,51.199L23,51.199C25.8,51.199 28.2,53.5 28.2,56.399C28.2,59.199 25.8,61.5 23,61.5L0,61.5Z" style="fill:white;fill-rule:nonzero;"/>
    </g>
    <g transform="matrix(1,0,0,1,483.916,116.303)">
        <path d="M0,51.298C0,54.098 -2.3,56.399 -5.199,56.399L-33.3,56.399C-36.2,56.399 -38.5,54.098 -38.5,51.298L-38.5,-0.002C-38.5,-2.802 -36.2,-5.101 -33.3,-5.101L-5.199,-5.101C-2.3,-5.101 0,-2.802 0,-0.002C0,2.899 -2.3,5.198 -5.199,5.198L-28.2,5.198L-28.2,20.598L-10.3,20.598C-7.5,20.598 -5.199,22.899 -5.199,25.698C-5.199,28.498 -7.5,30.798 -10.3,30.798L-28.2,30.798L-28.2,46.198L-5.199,46.198C-2.3,46.098 0,48.399 0,51.298" style="fill:white;fill-rule:nonzero;"/>
    </g>
    <g transform="matrix(1,0,0,1,496.916,142.002)">
        <path d="M0,0C0,11.3 8.601,20.5 19.101,20.5C29.7,20.5 38.301,11.399 38.301,0C38.301,-11.3 29.7,-20.5 19.101,-20.5C8.601,-20.5 0,-11.4 0,0M-10.3,0C-10.3,-17 2.9,-30.7 19.101,-30.7C35.301,-30.7 48.601,-16.9 48.601,0C48.601,17 35.301,30.7 19.101,30.7C2.9,30.7 -10.3,16.899 -10.3,0" style="fill:white;fill-rule:nonzero;"/>
    </g>
</svg>
