<?xml version="1.0" encoding="UTF-8" standalone="no"?>
<!DOCTYPE svg PUBLIC "-//W3C//DTD SVG 1.1//EN" "http://www.w3.org/Graphics/SVG/1.1/DTD/svg11.dtd">
<svg width="100%" height="100%" viewBox="0 0 750 750" version="1.1" xmlns="http://www.w3.org/2000/svg" xmlns:xlink="http://www.w3.org/1999/xlink" xml:space="preserve" xmlns:serif="http://www.serif.com/" style="fill-rule:evenodd;clip-rule:evenodd;stroke-linejoin:round;stroke-miterlimit:2;">
    <g id="Laag-1" serif:id="Laag 1">
        <path d="M532.416,542.316C535.753,532.665 537.532,522.562 537.532,512.145C537.532,501.943 535.797,492.044 532.59,482.581C485.758,497.94 432.074,506.667 375.003,506.667C317.938,506.667 264.251,497.94 217.411,482.581C214.197,492.044 212.469,501.943 212.469,512.145C212.469,522.562 214.245,532.665 217.592,542.316C265.701,556.462 318.959,564.353 375.003,564.353C431.035,564.353 484.297,556.462 532.416,542.316M194.776,362.729L141.969,214.86L375.006,381.311L608.051,214.86L555.233,362.729C573.441,377.367 588.989,394.188 601.23,412.699L729.171,54.457L375.006,307.437L20.837,54.457L148.772,412.699C161.013,394.188 176.568,377.367 194.776,362.729M498.516,345.528L447.393,382.05C512.736,403.713 558.514,453.797 558.514,512.16C558.514,568.618 515.655,617.355 453.663,640.072L453.663,695.546C548.227,669.304 616.186,597.143 616.186,512.16C616.186,441.323 568.976,379.391 498.516,345.528M302.631,382.05L251.5,345.528C181.033,379.391 133.831,441.323 133.831,512.16C133.831,597.143 201.789,669.304 296.36,695.546L296.36,640.072C234.369,617.355 191.502,568.618 191.502,512.16C191.502,453.797 237.28,403.713 302.631,382.05" style="fill:rgb(254,245,167);fill-rule:nonzero;stroke:white;stroke-width:0.27px;"/>
    </g>
</svg>
