<?xml version="1.0" encoding="UTF-8" standalone="no"?>
<!DOCTYPE svg PUBLIC "-//W3C//DTD SVG 1.1//EN" "http://www.w3.org/Graphics/SVG/1.1/DTD/svg11.dtd">
<svg width="100%" height="100%" viewBox="0 0 660 662" version="1.1" xmlns="http://www.w3.org/2000/svg" xmlns:xlink="http://www.w3.org/1999/xlink" xml:space="preserve" xmlns:serif="http://www.serif.com/" style="fill-rule:evenodd;clip-rule:evenodd;stroke-linejoin:round;stroke-miterlimit:2;">
    <g>
        <path d="M1.81,47.422L1.81,614.595C1.81,640.772 23.58,662 50.43,662L611.02,662C637.88,662 659.64,640.772 659.64,614.587L659.64,47.422C659.64,21.245 637.88,0 611.02,0L50.43,0C23.58,0 1.81,21.245 1.81,47.422ZM436.225,76.2C441.225,78.3 444.825,82.8 445.825,88.1L465.725,196L573.625,215.8C578.925,216.8 583.425,220.4 585.525,225.4C587.625,230.4 587.025,236.1 583.925,240.6L521.625,331L583.925,421.3C587.025,425.8 587.625,431.5 585.525,436.5C583.425,441.5 578.925,445.1 573.625,446.1L465.725,466L445.825,573.9C444.825,579.2 441.225,583.7 436.225,585.8C431.225,587.9 425.525,587.3 421.025,584.2L330.725,521.9L240.425,584.2C235.925,587.3 230.225,587.9 225.225,585.8C220.225,583.7 216.625,579.2 215.625,573.9L195.725,466L87.825,446.1C82.525,445.1 78.025,441.5 75.925,436.5C73.825,431.5 74.425,425.8 77.525,421.3L139.825,331L77.525,240.7C74.425,236.2 73.825,230.5 75.925,225.5C78.025,220.5 82.525,216.9 87.825,215.9L195.725,196L215.625,88.1C216.625,82.8 220.225,78.3 225.225,76.2C230.225,74.1 235.925,74.7 240.425,77.8L330.725,140.1L421.025,77.8C425.525,74.7 431.225,74.1 436.225,76.2ZM458.725,331C458.725,260.3 401.425,203 330.725,203C260.025,203 202.725,260.3 202.725,331C202.725,401.7 260.025,459 330.725,459C401.425,459 458.725,401.7 458.725,331ZM426.725,331C426.725,384 383.725,427 330.725,427C277.725,427 234.725,384 234.725,331C234.725,278 277.725,235 330.725,235C383.725,235 426.725,278 426.725,331Z" style="fill:white;fill-rule:nonzero;"/>
    </g>
</svg>
