<?xml version="1.0" encoding="UTF-8" standalone="no"?>
<!DOCTYPE svg PUBLIC "-//W3C//DTD SVG 1.1//EN" "http://www.w3.org/Graphics/SVG/1.1/DTD/svg11.dtd">
<svg width="100%" height="100%" viewBox="0 0 660 662" version="1.1" xmlns="http://www.w3.org/2000/svg" xmlns:xlink="http://www.w3.org/1999/xlink" xml:space="preserve" xmlns:serif="http://www.serif.com/" style="fill-rule:evenodd;clip-rule:evenodd;stroke-linejoin:round;stroke-miterlimit:2;">
    <g>
        <path d="M1.81,47.422C1.81,21.245 23.58,0 50.43,0L611.02,0C637.88,0 659.64,21.245 659.64,47.422L659.64,614.587C659.64,640.772 637.88,662 611.02,662L50.43,662C23.58,662 1.81,640.772 1.81,614.595L1.81,47.422ZM362.153,107C238.653,107 138.653,207.3 138.653,331C138.653,454.7 238.653,555 362.153,555C422.753,555 477.653,530.8 517.953,491.6C522.953,486.7 524.253,479.1 521.053,472.9C517.853,466.7 510.953,463.2 504.053,464.4C494.253,466.1 484.253,467 473.953,467C377.053,467 298.453,388.2 298.453,291C298.453,225.2 334.453,167.9 387.753,137.7C393.853,134.2 396.953,127.2 395.453,120.4C393.953,113.6 388.153,108.5 381.153,107.9C374.853,107.4 368.553,107.1 362.153,107.1L362.153,107Z" style="fill:white;fill-rule:nonzero;"/>
    </g>
</svg>
