<?xml version="1.0" encoding="UTF-8" standalone="no"?>
<!DOCTYPE svg PUBLIC "-//W3C//DTD SVG 1.1//EN" "http://www.w3.org/Graphics/SVG/1.1/DTD/svg11.dtd">
<svg width="100%" height="100%" viewBox="0 0 750 750" version="1.1" xmlns="http://www.w3.org/2000/svg" xmlns:xlink="http://www.w3.org/1999/xlink" xml:space="preserve" xmlns:serif="http://www.serif.com/" style="fill-rule:evenodd;clip-rule:evenodd;stroke-linejoin:round;stroke-miterlimit:2;">
    <g id="Laag-1" serif:id="Laag 1" transform="matrix(3.69924,0,0,3.69924,-1200.87,-780.617)">
        <g transform="matrix(1,0,0,1,377.279,239.25)">
            <path d="M0,69.826L-14.275,29.853L48.721,74.849L111.719,29.853L97.441,69.826C102.363,73.783 106.566,78.33 109.875,83.334L144.461,-13.508L48.721,54.879L-47.02,-13.508L-12.436,83.334C-9.127,78.33 -4.922,73.783 0,69.826" style="fill:white;fill-rule:nonzero;stroke:white;stroke-width:0.27px;"/>
        </g>
        <g transform="matrix(1,0,0,1,459.388,399.045)">
            <path d="M0,-94.619L-13.82,-84.746C3.844,-78.89 16.219,-65.351 16.219,-49.574C16.219,-34.312 4.633,-21.137 -12.125,-14.996L-12.125,0C13.438,-7.094 31.809,-26.601 31.809,-49.574C31.809,-68.723 19.047,-85.465 0,-94.619M-52.953,-84.746L-66.775,-94.619C-85.824,-85.465 -98.584,-68.723 -98.584,-49.574C-98.584,-26.601 -80.213,-7.094 -54.648,0L-54.648,-14.996C-71.406,-21.137 -82.994,-34.312 -82.994,-49.574C-82.994,-65.351 -70.619,-78.89 -52.953,-84.746" style="fill:white;fill-rule:nonzero;stroke:white;stroke-width:0.27px;"/>
        </g>
        <g transform="matrix(1,0,0,1,468.552,347.432)">
            <path d="M0,10.191C0.902,7.582 1.383,4.851 1.383,2.035C1.383,-0.723 0.914,-3.399 0.047,-5.957C-12.613,-1.805 -27.125,0.554 -42.553,0.554C-57.979,0.554 -72.492,-1.805 -85.154,-5.957C-86.023,-3.399 -86.49,-0.723 -86.49,2.035C-86.49,4.851 -86.01,7.582 -85.105,10.191C-72.1,14.015 -57.703,16.148 -42.553,16.148C-27.406,16.148 -13.008,14.015 0,10.191" style="fill:white;fill-rule:nonzero;stroke:white;stroke-width:0.27px;"/>
        </g>
    </g>
</svg>
