<?xml version="1.0" encoding="UTF-8" standalone="no"?>
<!DOCTYPE svg PUBLIC "-//W3C//DTD SVG 1.1//EN" "http://www.w3.org/Graphics/SVG/1.1/DTD/svg11.dtd">
<svg width="100%" height="100%" viewBox="0 0 660 662" version="1.1" xmlns="http://www.w3.org/2000/svg" xmlns:xlink="http://www.w3.org/1999/xlink" xml:space="preserve" xmlns:serif="http://www.serif.com/" style="fill-rule:evenodd;clip-rule:evenodd;stroke-linejoin:round;stroke-miterlimit:2;">
    <g>
        <path d="M1.81,47.422C1.81,21.245 23.58,0 50.43,0L611.02,0C637.88,0 659.64,21.245 659.64,47.422L659.64,614.587C659.64,640.772 637.88,662 611.02,662L50.43,662C23.58,662 1.81,640.772 1.81,614.595L1.81,47.422ZM527.808,169.47L132.194,169.47C105.206,169.47 83.252,191.423 83.252,218.412L83.252,443.589C83.252,470.577 105.206,492.531 132.194,492.531L527.807,492.531C554.795,492.531 576.748,470.577 576.748,443.589L576.748,218.412C576.749,191.423 554.796,169.47 527.808,169.47ZM256.079,358.404L301.897,404.223C309.409,411.734 319.39,415.868 330.001,415.868C340.611,415.868 350.593,411.734 358.105,404.223L403.925,358.404L505.415,459.902L154.579,459.902L256.079,358.404ZM544.122,218.412L544.122,443.589C544.122,446.163 543.397,448.513 542.329,450.679L426.992,335.333L544.089,218.236C544.089,218.301 544.122,218.348 544.122,218.412ZM115.88,443.588L115.88,218.412C115.88,218.348 115.913,218.302 115.913,218.237L233.01,335.334L117.665,450.678C116.605,448.512 115.88,446.163 115.88,443.588ZM335.036,381.154C332.344,383.845 327.658,383.845 324.966,381.154L145.919,202.098L514.091,202.098L335.036,381.154Z" style="fill:white;fill-rule:nonzero;"/>
    </g>
</svg>
