<?xml version="1.0" encoding="UTF-8" standalone="no"?>
<!DOCTYPE svg PUBLIC "-//W3C//DTD SVG 1.1//EN" "http://www.w3.org/Graphics/SVG/1.1/DTD/svg11.dtd">
<svg width="100%" height="100%" viewBox="0 0 660 662" version="1.1" xmlns="http://www.w3.org/2000/svg" xmlns:xlink="http://www.w3.org/1999/xlink" xml:space="preserve" xmlns:serif="http://www.serif.com/" style="fill-rule:evenodd;clip-rule:evenodd;stroke-linejoin:round;stroke-miterlimit:2;">
    <g transform="matrix(1,0,0,1,-1840,0)">
        <path d="M1841.81,47.422C1841.81,21.245 1863.58,0 1890.43,0L2451.02,0C2477.88,0 2499.64,21.245 2499.64,47.422L2499.64,614.587C2499.64,640.772 2477.88,662 2451.02,662L1890.43,662C1863.58,662 1841.81,640.772 1841.81,614.595L1841.81,47.422ZM2096.22,554.158L2195.57,554.158L2195.57,387.243C2195.57,378.318 2196.22,369.375 2198.84,363.003C2206.02,345.143 2222.37,326.659 2249.82,326.659C2285.76,326.659 2300.15,354.069 2300.15,394.258L2300.15,554.158L2399.5,554.158L2399.5,382.763C2399.5,290.949 2350.49,248.224 2285.12,248.224C2232.42,248.224 2208.78,277.191 2195.57,297.557L2195.57,298.581L2194.91,298.581C2195.13,298.242 2195.35,297.901 2195.57,297.557L2195.57,255.239L2096.22,255.239C2097.51,283.19 2096.22,552.382 2096.22,554.158L2096.21,554.158L2096.21,554.167L2096.22,554.158ZM1941.86,255.23L1941.86,554.158L2041.22,554.158L2041.22,255.23L1941.86,255.23ZM1991.56,214.424C2026.2,214.424 2047.77,191.468 2047.77,162.782C2047.12,133.445 2026.2,111.132 1992.22,111.132C1958.21,111.132 1936,133.445 1936,162.782C1936,191.468 1957.56,214.424 1990.91,214.424L1991.56,214.424ZM1841.81,47.422L1841.81,47.413L1841.81,47.422Z" style="fill:white;fill-rule:nonzero;"/>
    </g>
</svg>
